<svg width="18" height="17" viewBox="0 0 18 17" fill="none" xmlns="http://www.w3.org/2000/svg">
<path d="M7.25 7.97266C8.59375 8.34766 9.25 9.37891 9.25 10.7539C9.25 13.0039 7.375 13.9727 5.34375 13.9727H0V2.91016H5.21875C7.09375 2.91016 8.75 3.44141 8.75 5.66016C8.75 6.75391 8.21875 7.47266 7.25 7.97266ZM2.40625 4.78516V7.37891H4.875C5.75 7.37891 6.375 7.00391 6.375 6.06641C6.375 5.03516 5.59375 4.78516 4.71875 4.78516H2.40625ZM5.03125 12.0977C6 12.0977 6.8125 11.7539 6.8125 10.6289C6.8125 9.50391 6.15625 9.03516 5.0625 9.03516H2.40625V12.0977H5.03125ZM16.2188 4.56641V3.47266H11.75V4.56641H16.2188ZM18 10.0977C18 10.2227 17.9688 10.3789 17.9688 10.5039H12.1875C12.1875 11.7852 12.875 12.5352 14.1562 12.5352C14.8125 12.5352 15.6875 12.1914 15.9062 11.5039H17.8438C17.25 13.3164 16 14.1914 14.0938 14.1914C11.5625 14.1914 9.96875 12.4727 9.96875 9.97266C9.96875 7.56641 11.625 5.72266 14.0938 5.72266C16.5938 5.72266 18 7.72266 18 10.0977ZM12.1875 9.09766H15.7812C15.6875 8.03516 15.125 7.41016 14 7.41016C12.9688 7.41016 12.25 8.06641 12.1875 9.09766Z" fill="#FFF4E6"/>
</svg>
