<svg width="18" height="17" viewBox="0 0 18 17" fill="none" xmlns="http://www.w3.org/2000/svg">
<path d="M7.25 7.47266C8.59375 7.84766 9.25 8.87891 9.25 10.2539C9.25 12.5039 7.375 13.4727 5.34375 13.4727H0V2.41016H5.21875C7.09375 2.41016 8.75 2.94141 8.75 5.16016C8.75 6.25391 8.21875 6.97266 7.25 7.47266ZM2.40625 4.28516V6.87891H4.875C5.75 6.87891 6.375 6.50391 6.375 5.56641C6.375 4.53516 5.59375 4.28516 4.71875 4.28516H2.40625ZM5.03125 11.5977C6 11.5977 6.8125 11.2539 6.8125 10.1289C6.8125 9.00391 6.15625 8.53516 5.0625 8.53516H2.40625V11.5977H5.03125ZM16.2188 4.06641V2.97266H11.75V4.06641H16.2188ZM18 9.59766C18 9.72266 17.9688 9.87891 17.9688 10.0039H12.1875C12.1875 11.2852 12.875 12.0352 14.1562 12.0352C14.8125 12.0352 15.6875 11.6914 15.9062 11.0039H17.8438C17.25 12.8164 16 13.6914 14.0938 13.6914C11.5625 13.6914 9.96875 11.9727 9.96875 9.47266C9.96875 7.06641 11.625 5.22266 14.0938 5.22266C16.5938 5.22266 18 7.22266 18 9.59766ZM12.1875 8.59766H15.7812C15.6875 7.53516 15.125 6.91016 14 6.91016C12.9688 6.91016 12.25 7.56641 12.1875 8.59766Z" fill="#1A1E27"/>
</svg>
