<svg width="12" height="17" viewBox="0 0 12 17" fill="none" xmlns="http://www.w3.org/2000/svg">
<path d="M10.6875 5.21875L7.40625 8.5L10.6875 11.8125C11.0938 12.1875 11.0938 12.8438 10.6875 13.2188C10.3125 13.625 9.65625 13.625 9.28125 13.2188L6 9.9375L2.6875 13.2188C2.3125 13.625 1.65625 13.625 1.28125 13.2188C0.875 12.8438 0.875 12.1875 1.28125 11.8125L4.5625 8.5L1.28125 5.21875C0.875 4.84375 0.875 4.1875 1.28125 3.8125C1.65625 3.40625 2.3125 3.40625 2.6875 3.8125L6 7.09375L9.28125 3.8125C9.65625 3.40625 10.3125 3.40625 10.6875 3.8125C11.0938 4.1875 11.0938 4.84375 10.6875 5.21875Z" fill="#FFF4E6"/>
</svg>
