<svg width="16" height="17" viewBox="0 0 16 17" fill="none" xmlns="http://www.w3.org/2000/svg">
<path d="M2 3.53516C1.71875 3.53516 1.5 3.78516 1.5 4.03516V4.75391L6.875 9.16016C7.53125 9.69141 8.4375 9.69141 9.09375 9.16016L14.5 4.75391V4.03516C14.5 3.78516 14.25 3.53516 14 3.53516H2ZM1.5 6.69141V12.0352C1.5 12.3164 1.71875 12.5352 2 12.5352H14C14.25 12.5352 14.5 12.3164 14.5 12.0352V6.69141L10.0625 10.3164C8.84375 11.3164 7.125 11.3164 5.9375 10.3164L1.5 6.69141ZM0 4.03516C0 2.94141 0.875 2.03516 2 2.03516H14C15.0938 2.03516 16 2.94141 16 4.03516V12.0352C16 13.1602 15.0938 14.0352 14 14.0352H2C0.875 14.0352 0 13.1602 0 12.0352V4.03516Z" fill="#1A1E27"/>
</svg>
