<svg width="16" height="17" viewBox="0 0 16 17" fill="none" xmlns="http://www.w3.org/2000/svg">
<path d="M2 4.03516C1.71875 4.03516 1.5 4.28516 1.5 4.53516V5.25391L6.875 9.66016C7.53125 10.1914 8.4375 10.1914 9.09375 9.66016L14.5 5.25391V4.53516C14.5 4.28516 14.25 4.03516 14 4.03516H2ZM1.5 7.19141V12.5352C1.5 12.8164 1.71875 13.0352 2 13.0352H14C14.25 13.0352 14.5 12.8164 14.5 12.5352V7.19141L10.0625 10.8164C8.84375 11.8164 7.125 11.8164 5.9375 10.8164L1.5 7.19141ZM0 4.53516C0 3.44141 0.875 2.53516 2 2.53516H14C15.0938 2.53516 16 3.44141 16 4.53516V12.5352C16 13.6602 15.0938 14.5352 14 14.5352H2C0.875 14.5352 0 13.6602 0 12.5352V4.53516Z" fill="#FFF4E6"/>
</svg>
