<svg width="16" height="17" viewBox="0 0 16 17" fill="none" xmlns="http://www.w3.org/2000/svg">
<path d="M5.40625 12.4727C5.40625 12.4102 5.34375 12.3477 5.25 12.3477C5.15625 12.3477 5.09375 12.4102 5.09375 12.4727C5.09375 12.5352 5.15625 12.5977 5.25 12.5664C5.34375 12.5664 5.40625 12.5352 5.40625 12.4727ZM4.4375 12.3164C4.46875 12.2539 4.5625 12.2227 4.65625 12.2539C4.75 12.2852 4.78125 12.3477 4.78125 12.4102C4.75 12.4727 4.65625 12.5039 4.59375 12.4727C4.5 12.4727 4.4375 12.3789 4.4375 12.3164ZM5.84375 12.2852C5.90625 12.2539 6 12.3164 6 12.3789C6.03125 12.4414 5.96875 12.4727 5.875 12.5039C5.78125 12.5352 5.6875 12.5039 5.6875 12.4414C5.6875 12.3477 5.75 12.2852 5.84375 12.2852ZM7.875 0.285156C12.2188 0.285156 15.75 3.59766 15.75 7.91016C15.75 11.3789 13.625 14.3477 10.5 15.3789C10.0938 15.4727 9.9375 15.2227 9.9375 15.0039C9.9375 14.7539 9.96875 13.4414 9.96875 12.4102C9.96875 11.6602 9.71875 11.1914 9.4375 10.9414C11.1875 10.7539 13.0312 10.5039 13.0312 7.50391C13.0312 6.62891 12.7188 6.22266 12.2188 5.66016C12.2812 5.44141 12.5625 4.62891 12.125 3.53516C11.4688 3.31641 9.96875 4.37891 9.96875 4.37891C9.34375 4.19141 8.6875 4.12891 8 4.12891C7.34375 4.12891 6.6875 4.19141 6.0625 4.37891C6.0625 4.37891 4.53125 3.34766 3.90625 3.53516C3.46875 4.62891 3.71875 5.44141 3.8125 5.66016C3.3125 6.22266 3.0625 6.62891 3.0625 7.50391C3.0625 10.5039 4.84375 10.7539 6.59375 10.9414C6.34375 11.1602 6.15625 11.5039 6.09375 12.0039C5.625 12.2227 4.5 12.5664 3.8125 11.3477C3.375 10.5977 2.59375 10.5352 2.59375 10.5352C1.84375 10.5352 2.5625 11.0352 2.5625 11.0352C3.0625 11.2539 3.40625 12.1602 3.40625 12.1602C3.875 13.5664 6.0625 13.0977 6.0625 13.0977C6.0625 13.7539 6.0625 14.8164 6.0625 15.0352C6.0625 15.2227 5.9375 15.4727 5.53125 15.4102C2.40625 14.3477 0.25 11.3789 0.25 7.91016C0.25 3.59766 3.5625 0.285156 7.875 0.285156ZM3.28125 11.0664C3.3125 11.0352 3.375 11.0664 3.4375 11.0977C3.5 11.1602 3.5 11.2539 3.46875 11.2852C3.40625 11.3164 3.34375 11.2852 3.28125 11.2539C3.25 11.1914 3.21875 11.0977 3.28125 11.0664ZM2.9375 10.8164C2.96875 10.7852 3 10.7852 3.0625 10.8164C3.125 10.8477 3.15625 10.8789 3.15625 10.9102C3.125 10.9727 3.0625 10.9727 3 10.9414C2.9375 10.9102 2.90625 10.8789 2.9375 10.8164ZM3.9375 11.9414C4 11.8789 4.09375 11.9102 4.15625 11.9727C4.21875 12.0352 4.21875 12.1289 4.1875 12.1602C4.15625 12.2227 4.0625 12.1914 4 12.1289C3.90625 12.0664 3.90625 11.9727 3.9375 11.9414ZM3.59375 11.4727C3.65625 11.4414 3.71875 11.4727 3.78125 11.5352C3.8125 11.5977 3.8125 11.6914 3.78125 11.7227C3.71875 11.7539 3.65625 11.7227 3.59375 11.6602C3.53125 11.5977 3.53125 11.5039 3.59375 11.4727Z" fill="#1A1E27"/>
</svg>
