<svg width="16" height="17" viewBox="0 0 16 17" fill="none" xmlns="http://www.w3.org/2000/svg">
<path d="M5.40625 12.9727C5.40625 12.9102 5.34375 12.8477 5.25 12.8477C5.15625 12.8477 5.09375 12.9102 5.09375 12.9727C5.09375 13.0352 5.15625 13.0977 5.25 13.0664C5.34375 13.0664 5.40625 13.0352 5.40625 12.9727ZM4.4375 12.8164C4.46875 12.7539 4.5625 12.7227 4.65625 12.7539C4.75 12.7852 4.78125 12.8477 4.78125 12.9102C4.75 12.9727 4.65625 13.0039 4.59375 12.9727C4.5 12.9727 4.4375 12.8789 4.4375 12.8164ZM5.84375 12.7852C5.90625 12.7539 6 12.8164 6 12.8789C6.03125 12.9414 5.96875 12.9727 5.875 13.0039C5.78125 13.0352 5.6875 13.0039 5.6875 12.9414C5.6875 12.8477 5.75 12.7852 5.84375 12.7852ZM7.875 0.785156C12.2188 0.785156 15.75 4.09766 15.75 8.41016C15.75 11.8789 13.625 14.8477 10.5 15.8789C10.0938 15.9727 9.9375 15.7227 9.9375 15.5039C9.9375 15.2539 9.96875 13.9414 9.96875 12.9102C9.96875 12.1602 9.71875 11.6914 9.4375 11.4414C11.1875 11.2539 13.0312 11.0039 13.0312 8.00391C13.0312 7.12891 12.7188 6.72266 12.2188 6.16016C12.2812 5.94141 12.5625 5.12891 12.125 4.03516C11.4688 3.81641 9.96875 4.87891 9.96875 4.87891C9.34375 4.69141 8.6875 4.62891 8 4.62891C7.34375 4.62891 6.6875 4.69141 6.0625 4.87891C6.0625 4.87891 4.53125 3.84766 3.90625 4.03516C3.46875 5.12891 3.71875 5.94141 3.8125 6.16016C3.3125 6.72266 3.0625 7.12891 3.0625 8.00391C3.0625 11.0039 4.84375 11.2539 6.59375 11.4414C6.34375 11.6602 6.15625 12.0039 6.09375 12.5039C5.625 12.7227 4.5 13.0664 3.8125 11.8477C3.375 11.0977 2.59375 11.0352 2.59375 11.0352C1.84375 11.0352 2.5625 11.5352 2.5625 11.5352C3.0625 11.7539 3.40625 12.6602 3.40625 12.6602C3.875 14.0664 6.0625 13.5977 6.0625 13.5977C6.0625 14.2539 6.0625 15.3164 6.0625 15.5352C6.0625 15.7227 5.9375 15.9727 5.53125 15.9102C2.40625 14.8477 0.25 11.8789 0.25 8.41016C0.25 4.09766 3.5625 0.785156 7.875 0.785156ZM3.28125 11.5664C3.3125 11.5352 3.375 11.5664 3.4375 11.5977C3.5 11.6602 3.5 11.7539 3.46875 11.7852C3.40625 11.8164 3.34375 11.7852 3.28125 11.7539C3.25 11.6914 3.21875 11.5977 3.28125 11.5664ZM2.9375 11.3164C2.96875 11.2852 3 11.2852 3.0625 11.3164C3.125 11.3477 3.15625 11.3789 3.15625 11.4102C3.125 11.4727 3.0625 11.4727 3 11.4414C2.9375 11.4102 2.90625 11.3789 2.9375 11.3164ZM3.9375 12.4414C4 12.3789 4.09375 12.4102 4.15625 12.4727C4.21875 12.5352 4.21875 12.6289 4.1875 12.6602C4.15625 12.7227 4.0625 12.6914 4 12.6289C3.90625 12.5664 3.90625 12.4727 3.9375 12.4414ZM3.59375 11.9727C3.65625 11.9414 3.71875 11.9727 3.78125 12.0352C3.8125 12.0977 3.8125 12.1914 3.78125 12.2227C3.71875 12.2539 3.65625 12.2227 3.59375 12.1602C3.53125 12.0977 3.53125 12.0039 3.59375 11.9727Z" fill="#FFF4E6"/>
</svg>
