<svg width="26" height="19" viewBox="0 0 26 19" fill="none" xmlns="http://www.w3.org/2000/svg">
<path d="M8.36 8.92988L14.288 18.0259H9.08L5.624 12.7459L4.376 14.4739V18.0259H0.2V1.22588H4.376V7.24988L8.768 1.22588H13.952L8.36 8.92988ZM25.7658 6.62588V12.6259C25.7658 14.2099 25.4298 18.4579 19.7418 18.4579C14.0538 18.4579 13.7178 14.2099 13.7178 12.6259V6.62588C13.7178 5.04188 14.0538 0.793878 19.7418 0.793878C25.4298 0.793878 25.7658 5.04188 25.7658 6.62588ZM21.6378 11.3539V7.89788C21.6378 6.04988 21.5178 4.92188 19.7418 4.92188C17.9658 4.92188 17.8458 6.04988 17.8458 7.89788V11.3539C17.8458 13.2019 17.9658 14.3299 19.7418 14.3299C21.5178 14.3299 21.6378 13.2019 21.6378 11.3539Z" fill="#FFF4E6"/>
</svg>
