<svg width="14" height="17" viewBox="0 0 14 17" fill="none" xmlns="http://www.w3.org/2000/svg">
<path d="M13 1.53516C13.5312 1.53516 14 2.00391 14 2.56641V14.5352C14 15.0977 13.5312 15.5352 13 15.5352H0.96875C0.4375 15.5352 0 15.0977 0 14.5352V2.56641C0 2.00391 0.4375 1.53516 0.96875 1.53516H13ZM4.21875 13.5352V6.87891H2.15625V13.5352H4.21875ZM3.1875 5.94141C3.84375 5.94141 4.375 5.41016 4.375 4.75391C4.375 4.09766 3.84375 3.53516 3.1875 3.53516C2.5 3.53516 1.96875 4.09766 1.96875 4.75391C1.96875 5.41016 2.5 5.94141 3.1875 5.94141ZM12 13.5352V9.87891C12 8.09766 11.5938 6.69141 9.5 6.69141C8.5 6.69141 7.8125 7.25391 7.53125 7.78516H7.5V6.87891H5.53125V13.5352H7.59375V10.2539C7.59375 9.37891 7.75 8.53516 8.84375 8.53516C9.90625 8.53516 9.90625 9.53516 9.90625 10.2852V13.5352H12Z" fill="#FFF4E6"/>
</svg>
