<svg width="14" height="17" viewBox="0 0 14 17" fill="none" xmlns="http://www.w3.org/2000/svg">
<path d="M13 1.03516C13.5312 1.03516 14 1.50391 14 2.06641V14.0352C14 14.5977 13.5312 15.0352 13 15.0352H0.96875C0.4375 15.0352 0 14.5977 0 14.0352V2.06641C0 1.50391 0.4375 1.03516 0.96875 1.03516H13ZM4.21875 13.0352V6.37891H2.15625V13.0352H4.21875ZM3.1875 5.44141C3.84375 5.44141 4.375 4.91016 4.375 4.25391C4.375 3.59766 3.84375 3.03516 3.1875 3.03516C2.5 3.03516 1.96875 3.59766 1.96875 4.25391C1.96875 4.91016 2.5 5.44141 3.1875 5.44141ZM12 13.0352V9.37891C12 7.59766 11.5938 6.19141 9.5 6.19141C8.5 6.19141 7.8125 6.75391 7.53125 7.28516H7.5V6.37891H5.53125V13.0352H7.59375V9.75391C7.59375 8.87891 7.75 8.03516 8.84375 8.03516C9.90625 8.03516 9.90625 9.03516 9.90625 9.78516V13.0352H12Z" fill="#1A1E27"/>
</svg>
