<svg width="257" height="256" viewBox="0 0 257 256" fill="none" xmlns="http://www.w3.org/2000/svg">
<rect x="0.654785" width="256" height="256" rx="20" fill="#1A1E27"/>
<path d="M90.6548 124.2L140.055 200H96.6548L67.8548 156L57.4548 170.4V200H22.6548V60H57.4548V110.2L94.0548 60H137.255L90.6548 124.2ZM235.703 105V155C235.703 168.2 232.903 203.6 185.503 203.6C138.103 203.6 135.303 168.2 135.303 155V105C135.303 91.8 138.103 56.4 185.503 56.4C232.903 56.4 235.703 91.8 235.703 105ZM201.303 144.4V115.6C201.303 100.2 200.303 90.8 185.503 90.8C170.703 90.8 169.703 100.2 169.703 115.6V144.4C169.703 159.8 170.703 169.2 185.503 169.2C200.303 169.2 201.303 159.8 201.303 144.4Z" fill="#FFF4E6"/>
</svg>
