<svg width="20" height="17" viewBox="0 0 20 17" fill="none" xmlns="http://www.w3.org/2000/svg">
<path d="M5.625 2.87891C8.75 2.87891 11.2812 5.41016 11.2812 8.53516C11.2812 11.6914 8.75 14.2227 5.625 14.2227C2.5 14.2227 0 11.6914 0 8.53516C0 5.41016 2.5 2.87891 5.625 2.87891ZM14.625 3.19141C16.1875 3.19141 17.4688 5.59766 17.4688 8.56641C17.4688 11.5039 16.1875 13.9102 14.625 13.9102C13.0625 13.9102 11.8125 11.5039 11.8125 8.56641C11.8125 5.59766 13.0625 3.19141 14.625 3.19141ZM19 3.75391C19.5312 3.75391 20 5.91016 20 8.53516C20 11.1914 19.5312 13.3477 19 13.3477C18.4375 13.3477 18 11.1914 18 8.56641C18 5.91016 18.4375 3.75391 19 3.75391Z" fill="#FFF4E6"/>
</svg>
