<svg width="20" height="17" viewBox="0 0 20 17" fill="none" xmlns="http://www.w3.org/2000/svg">
<path d="M5.625 2.37891C8.75 2.37891 11.2812 4.91016 11.2812 8.03516C11.2812 11.1914 8.75 13.7227 5.625 13.7227C2.5 13.7227 0 11.1914 0 8.03516C0 4.91016 2.5 2.37891 5.625 2.37891ZM14.625 2.69141C16.1875 2.69141 17.4688 5.09766 17.4688 8.06641C17.4688 11.0039 16.1875 13.4102 14.625 13.4102C13.0625 13.4102 11.8125 11.0039 11.8125 8.06641C11.8125 5.09766 13.0625 2.69141 14.625 2.69141ZM19 3.25391C19.5312 3.25391 20 5.41016 20 8.03516C20 10.6914 19.5312 12.8477 19 12.8477C18.4375 12.8477 18 10.6914 18 8.06641C18 5.41016 18.4375 3.25391 19 3.25391Z" fill="#1A1E27"/>
</svg>
