<svg width="14" height="17" viewBox="0 0 14 17" fill="none" xmlns="http://www.w3.org/2000/svg">
<path d="M0 3.5C0 2.96875 0.4375 2.5 1 2.5H13C13.5312 2.5 14 2.96875 14 3.5C14 4.0625 13.5312 4.5 13 4.5H1C0.4375 4.5 0 4.0625 0 3.5ZM0 8.5C0 7.96875 0.4375 7.5 1 7.5H13C13.5312 7.5 14 7.96875 14 8.5C14 9.0625 13.5312 9.5 13 9.5H1C0.4375 9.5 0 9.0625 0 8.5ZM14 13.5C14 14.0625 13.5312 14.5 13 14.5H1C0.4375 14.5 0 14.0625 0 13.5C0 12.9688 0.4375 12.5 1 12.5H13C13.5312 12.5 14 12.9688 14 13.5Z" fill="#FFF4E6"/>
</svg>
