<svg width="33" height="32" viewBox="0 0 33 32" fill="none" xmlns="http://www.w3.org/2000/svg">
<rect x="0.654785" width="32" height="32" rx="5" fill="#1A1E27"/>
<path d="M12.4548 16.42L17.3948 24H13.0548L10.1748 19.6L9.13479 21.04V24H5.65479V10H9.13479V15.02L12.7948 10H17.1148L12.4548 16.42ZM26.9596 14.5V19.5C26.9596 20.82 26.6796 24.36 21.9396 24.36C17.1996 24.36 16.9196 20.82 16.9196 19.5V14.5C16.9196 13.18 17.1996 9.64 21.9396 9.64C26.6796 9.64 26.9596 13.18 26.9596 14.5ZM23.5196 18.44V15.56C23.5196 14.02 23.4196 13.08 21.9396 13.08C20.4596 13.08 20.3596 14.02 20.3596 15.56V18.44C20.3596 19.98 20.4596 20.92 21.9396 20.92C23.4196 20.92 23.5196 19.98 23.5196 18.44Z" fill="#FFF4E6"/>
</svg>
